# SSTK version 0.8.0
# 36
mtllib original-36.mtl
o DF_21_B1/DF_21_B/mesh23/mesh23-geometry#mesh23-geometry
v 0.290749 -0.504382 0.522376
v -0.344227 -0.504382 0.544078
v 0.290749 -0.504382 0.544078
v -0.344227 -0.504382 0.522376
v -0.344227 -0.527620 0.549513
v 0.290749 -0.527620 0.549513
v -0.344227 -0.591216 0.522376
v 0.290749 -0.591216 0.522376
v -0.344227 -0.527620 0.552208
v 0.290749 -0.527986 0.553574
v 0.290749 -0.591216 0.554939
v 0.290749 -0.527620 0.552208
v -0.344227 -0.527986 0.553574
v 0.290749 -0.528985 0.554573
v -0.344227 -0.591216 0.554939
v 0.290749 -0.530350 0.554939
v -0.344227 -0.528985 0.554573
v -0.344227 -0.530350 0.554939
vt -2.71481 0.484664
vt -2.441373 0.484664
vt -2.441373 0.495815
vt -2.71481 0.495815
vt -2.441373 0.526331
vt -2.71481 0.526331
vt -2.71481 0.49599
vt -2.441373 0.49599
vt -2.71481 0.49647
vt -2.71481 0.497125
vt -2.441373 0.49647
vt -2.441373 0.497125
vn 0 1 0
vn 0 0.8684891330207148 0.49570820633203877
vn 0 0.22774484686035756 0.9737208453805188
vn 1 0 0
vn 0 0 -1
vn -1 0 0
vn 0 0.9917867977341079 0.127902102564123
vn 0 -1 0
vn 0 0.8792259828095228 0.47640494450900556
vn 0 0.5165545439781154 0.8562542864684306
vn 0 0 1
vn 0 0.1317633078143276 0.9912812066784211
vn 0 -0.8684891330207148 -0.49570820633203877
vn 0 -0.22774484686035756 -0.9737208453805188
vn 0 -0.9917867977341079 -0.127902102564123
vn 0 -0.8792259828095228 -0.47640494450900556
vn 0 -0.5165545439781154 -0.8562542864684306
vn 0 -0.1317633078143276 -0.9912812066784211
usemtl material_0_0
f 1/1/1 2/2/2 3/1/2
f 2/2/2 1/1/1 4/2/1
f 5/3/3 3/1/2 2/2/2
f 6/4/4 1/1/4 3/1/4
f 1/1/5 7/5/5 4/2/5
f 7/5/6 2/2/6 4/2/6
f 3/1/2 5/3/3 6/4/3
f 2/2/6 7/5/6 5/3/6
f 1/1/4 6/4/4 8/6/4
f 7/5/5 1/1/5 8/6/5
f 9/3/7 6/4/1 5/3/1
f 5/3/6 7/5/6 9/3/6
f 8/6/4 6/4/4 10/7/4
f 11/6/8 7/5/8 8/6/8
f 6/4/1 9/3/7 12/4/7
f 9/3/6 7/5/6 13/8/6
f 10/7/4 6/4/4 12/4/4
f 8/6/4 10/7/4 14/9/4
f 7/5/8 11/6/8 15/5/8
f 8/6/4 16/10/4 11/6/4
f 13/8/9 12/4/7 9/3/7
f 13/8/6 7/5/6 17/11/6
f 12/4/7 13/8/9 10/7/9
f 13/8/9 14/9/10 10/7/9
f 8/6/4 14/9/4 16/10/4
f 11/6/11 18/12/12 15/5/11
f 18/12/6 7/5/6 15/5/6
f 18/12/12 11/6/11 16/10/12
f 17/11/6 7/5/6 18/12/6
f 14/9/10 13/8/9 17/11/10
f 14/9/10 18/12/12 16/10/12
f 18/12/12 14/9/10 17/11/10
usemtl material_1_0
f 3//13 2//13 1//8
f 4//8 1//8 2//13
f 2//13 3//13 5//14
f 3//6 1//6 6//6
f 4//11 7//11 1//11
f 4//4 2//4 7//4
f 6//14 5//14 3//13
f 5//4 7//4 2//4
f 8//6 6//6 1//6
f 8//11 1//11 7//11
f 5//8 6//8 9//15
f 9//4 7//4 5//4
f 10//6 6//6 8//6
f 8//1 7//1 11//1
f 12//15 9//15 6//8
f 13//4 7//4 9//4
f 12//6 6//6 10//6
f 14//6 10//6 8//6
f 15//1 11//1 7//1
f 11//6 16//6 8//6
f 9//15 12//15 13//16
f 17//4 7//4 13//4
f 10//16 13//16 12//15
f 10//16 14//17 13//16
f 16//6 14//6 8//6
f 15//5 18//18 11//5
f 15//4 7//4 18//4
f 16//18 11//5 18//18
f 18//4 7//4 17//4
f 17//17 13//16 14//17
f 16//18 18//18 14//17
f 17//17 14//17 18//18
