# SSTK version 0.8.0
# 72
mtllib original-72.mtl
o DF_11_T1/DF_11_T/mesh28/mesh28-geometry#mesh28-geometry
v 0.290749 0.695018 0.522376
v -0.344227 0.695018 0.554939
v 0.290749 0.695018 0.554939
v -0.344227 0.695018 0.522376
v -0.344227 0.634152 0.554939
v 0.290749 0.634152 0.554939
v -0.344227 0.608183 0.522376
v -0.344227 0.631421 0.549513
v 0.290749 0.631421 0.549513
v 0.290749 0.608183 0.522376
v -0.344227 0.632787 0.554573
v 0.290749 0.632787 0.554573
v 0.290749 0.608183 0.544078
v -0.344227 0.608183 0.544078
v -0.344227 0.631787 0.553574
v 0.290749 0.631787 0.553574
v -0.344227 0.631421 0.552208
v 0.290749 0.631421 0.552208
vt -1.535065 0.398727
vt -1.261628 0.398727
vt -1.261628 0.427932
vt -1.535065 0.427932
vt -1.261628 0.440393
vt -1.261628 0.429243
vt -1.535065 0.429243
vt -1.535065 0.440393
vt -1.261628 0.428588
vt -1.535065 0.428588
vt -1.261628 0.429067
vt -1.535065 0.429067
vn 0 1 0
vn 0 -0.13176330781432805 0.9912812066784211
vn 0 0 1
vn 1 0 0
vn 0 0 -1
vn -1 0 0
vn 0 -0.5165545439781158 0.8562542864684304
vn 0 -0.8684891330207151 0.4957082063320383
vn 0 -1 0
vn 0 -0.227744846860358 0.9737208453805188
vn 0 -0.879225982809523 0.47640494450900517
vn 0 -0.9917867977341082 0.12790210256412257
vn 0 0.13176330781432805 -0.9912812066784211
vn 0 0.5165545439781158 -0.8562542864684304
vn 0 0.8684891330207151 -0.4957082063320383
vn 0 0.227744846860358 -0.9737208453805188
vn 0 0.879225982809523 -0.47640494450900517
vn 0 0.9917867977341082 -0.12790210256412257
usemtl material_0_0
f 1/1/1 2/2/1 3/1/1
f 2/2/1 1/1/1 4/2/1
f 5/3/2 3/1/3 2/2/3
f 6/4/4 1/1/4 3/1/4
f 1/1/5 7/5/5 4/2/5
f 7/5/6 2/2/6 4/2/6
f 3/1/3 5/3/2 6/4/2
f 2/2/6 8/6/6 5/3/6
f 1/1/4 6/4/4 9/7/4
f 7/5/5 1/1/5 10/8/5
f 2/2/6 7/5/6 8/6/6
f 11/9/7 6/4/2 5/3/2
f 5/3/6 8/6/6 11/9/6
f 9/7/4 6/4/4 12/10/4
f 1/1/4 9/7/4 10/8/4
f 13/8/8 7/5/9 10/8/9
f 8/6/6 7/5/6 14/5/6
f 6/4/2 11/9/7 12/10/7
f 11/9/6 8/6/6 15/11/6
f 9/7/4 12/10/4 16/12/4
f 10/8/4 9/7/4 13/8/4
f 7/5/9 13/8/8 14/5/8
f 13/8/8 8/6/10 14/5/8
f 11/9/7 16/12/11 12/10/7
f 17/6/6 15/11/6 8/6/6
f 16/12/11 11/9/7 15/11/11
f 9/7/4 16/12/4 18/7/4
f 8/6/10 13/8/8 9/7/10
f 17/6/12 16/12/11 15/11/11
f 8/6/9 18/7/12 17/6/12
f 16/12/11 17/6/12 18/7/12
f 18/7/12 8/6/9 9/7/9
usemtl material_1_0
f 3//9 2//9 1//9
f 4//9 1//9 2//9
f 2//5 3//5 5//13
f 3//6 1//6 6//6
f 4//3 7//3 1//3
f 4//4 2//4 7//4
f 6//13 5//13 3//5
f 5//4 8//4 2//4
f 9//6 6//6 1//6
f 10//3 1//3 7//3
f 8//4 7//4 2//4
f 5//13 6//13 11//14
f 11//4 8//4 5//4
f 12//6 6//6 9//6
f 10//6 9//6 1//6
f 10//1 7//1 13//15
f 14//4 7//4 8//4
f 12//14 11//14 6//13
f 15//4 8//4 11//4
f 16//6 12//6 9//6
f 13//6 9//6 10//6
f 14//15 13//15 7//1
f 14//15 8//16 13//15
f 12//14 16//17 11//14
f 8//4 15//4 17//4
f 15//17 11//14 16//17
f 18//6 16//6 9//6
f 9//16 13//15 8//16
f 15//17 16//17 17//18
f 17//18 18//18 8//1
f 18//18 17//18 16//17
f 9//1 8//1 18//18
